<svg
  xmlns="http://www.w3.org/2000/svg"
  xmlns:xlink="http://www.w3.org/1999/xlink"
  viewBox="0 0 576 432"
>
  <path d="M0 432h576V0H0z" style="fill: transparent" />
  <path d="M72 384.48h446.4V51.84H72z" style="fill: transparent" />
  <defs>
    <path
      id="a"
      d="M0 0v-3.5"
      style="stroke: #fff; mix-blend-mode: difference; stroke-width: 0.8"
    />
  </defs>
  <use
    xlink:href="#a"
    x="101.436"
    y="384.48"
    style="
      fill: #fff;
      stroke: #fff;
      mix-blend-mode: difference;
      stroke-width: 0.8;
    "
  />
  <g
    style="fill: #fff; mix-blend-mode: difference"
    transform="matrix(.12 0 0 -.12 92.59 397.098)"
  >
    <defs>
      <path id="b" d="M678 2272h4006v-531H678v531z" transform="scale(.01563)" />
      <path
        id="c"
        d="M2597 2516q453-97 707-404 255-306 255-756 0-690-475-1069Q2609-91 1734-91q-293 0-604 58T488 141v609q262-153 574-231 313-78 654-78 593 0 904 234t311 681q0 413-289 645-289 233-804 233h-544v519h569q465 0 712 186t247 536q0 359-255 551-254 193-729 193-260 0-557-57-297-56-653-174v562q360 100 674 150t592 50q719 0 1137-327 419-326 419-882 0-388-222-655t-631-370z"
        transform="scale(.01563)"
      />
    </defs>
    <use xlink:href="#b" />
    <use xlink:href="#c" x="83.789" />
  </g>
  <use
    xlink:href="#a"
    x="166.024"
    y="384.48"
    style="
      fill: #fff;
      stroke: #fff;
      mix-blend-mode: difference;
      stroke-width: 0.8;
    "
  />
  <g
    style="fill: #fff; mix-blend-mode: difference"
    transform="matrix(.12 0 0 -.12 157.179 397.098)"
  >
    <defs>
      <path
        id="d"
        d="M1228 531h2203V0H469v531q359 372 979 998 621 627 780 809 303 340 423 576 121 236 121 464 0 372-261 606-261 235-680 235-297 0-627-103-329-103-704-313v638q381 153 712 231 332 78 607 78 725 0 1156-363 431-362 431-968 0-288-108-546-107-257-392-607-78-91-497-524-418-433-1181-1211z"
        transform="scale(.01563)"
      />
    </defs>
    <use xlink:href="#b" />
    <use xlink:href="#d" x="83.789" />
  </g>
  <use
    xlink:href="#a"
    x="230.612"
    y="384.48"
    style="
      fill: #fff;
      stroke: #fff;
      mix-blend-mode: difference;
      stroke-width: 0.8;
    "
  />
  <g
    style="fill: #fff; mix-blend-mode: difference"
    transform="matrix(.12 0 0 -.12 221.767 397.098)"
  >
    <defs>
      <path
        id="e"
        d="M794 531h1031v3560L703 3866v575l1116 225h631V531h1031V0H794v531z"
        transform="scale(.01563)"
      />
    </defs>
    <use xlink:href="#b" />
    <use xlink:href="#e" x="83.789" />
  </g>
  <use
    xlink:href="#a"
    x="295.2"
    y="384.48"
    style="
      fill: #fff;
      stroke: #fff;
      mix-blend-mode: difference;
      stroke-width: 0.8;
    "
  />
  <g
    style="fill: #fff; mix-blend-mode: difference"
    transform="matrix(.12 0 0 -.12 291.382 397.098)"
  >
    <defs>
      <path
        id="f"
        d="M2034 4250q-487 0-733-480-245-479-245-1442 0-959 245-1439 246-480 733-480 491 0 736 480 246 480 246 1439 0 963-246 1442-245 480-736 480zm0 500q785 0 1199-621 414-620 414-1801 0-1178-414-1799Q2819-91 2034-91q-784 0-1198 620-414 621-414 1799 0 1181 414 1801 414 621 1198 621z"
        transform="scale(.01563)"
      />
    </defs>
    <use xlink:href="#f" />
  </g>
  <use
    xlink:href="#a"
    x="359.788"
    y="384.48"
    style="
      fill: #fff;
      stroke: #fff;
      mix-blend-mode: difference;
      stroke-width: 0.8;
    "
  />
  <use
    xlink:href="#e"
    style="fill: #fff; mix-blend-mode: difference"
    transform="matrix(.12 0 0 -.12 355.97 397.098)"
  />
  <use
    xlink:href="#a"
    x="424.376"
    y="384.48"
    style="
      fill: #fff;
      stroke: #fff;
      mix-blend-mode: difference;
      stroke-width: 0.8;
    "
  />
  <use
    xlink:href="#d"
    style="fill: #fff; mix-blend-mode: difference"
    transform="matrix(.12 0 0 -.12 420.558 397.098)"
  />
  <use
    xlink:href="#a"
    x="488.964"
    y="384.48"
    style="
      fill: #fff;
      stroke: #fff;
      mix-blend-mode: difference;
      stroke-width: 0.8;
    "
  />
  <use
    xlink:href="#c"
    style="fill: #fff; mix-blend-mode: difference"
    transform="matrix(.12 0 0 -.12 485.146 397.098)"
  />
  <g
    style="fill: #fff; mix-blend-mode: difference"
    transform="matrix(.12 0 0 -.12 210.049 412.712)"
  >
    <defs>
      <path
        id="g"
        d="M628 4666h941l1190-3175 1197 3175h941V0h-616v4097L3078 897h-634L1241 4097V0H628v4666z"
        transform="scale(.01563)"
      />
      <path
        id="h"
        d="M3597 1894v-281H953q38-594 358-905t892-311q331 0 642 81t618 244V178Q3153 47 2828-22t-659-69q-838 0-1327 487-489 488-489 1320 0 859 464 1363 464 505 1252 505 706 0 1117-455 411-454 411-1235zm-575 169q-6 471-264 752-258 282-683 282-481 0-770-272t-333-766l2050 4z"
        transform="scale(.01563)"
      />
      <path
        id="i"
        d="M2194 1759q-697 0-966-159t-269-544q0-306 202-486 202-179 548-179 479 0 768 339t289 901v128h-572zm1147 238V0h-575v531q-197-318-491-470T1556-91q-537 0-855 302-317 302-317 808 0 590 395 890 396 300 1180 300h807v57q0 397-261 614t-733 217q-300 0-585-72-284-72-546-216v532q315 122 612 182 297 61 578 61 760 0 1135-394 375-393 375-1193z"
        transform="scale(.01563)"
      />
      <path
        id="j"
        d="M3513 2113V0h-575v2094q0 497-194 743-194 247-581 247-466 0-735-297-269-296-269-809V0H581v3500h578v-544q207 316 486 472 280 156 646 156 603 0 912-373 310-373 310-1098z"
        transform="scale(.01563)"
      />
      <path
        id="k"
        d="m2188 4044-857-2322h1716l-859 2322zm-357 622h716L4325 0h-656l-425 1197H1141L716 0H50l1781 4666z"
        transform="scale(.01563)"
      />
      <path
        id="l"
        d="M1959 3097q-462 0-731-361t-269-989q0-628 267-989 268-361 733-361 460 0 728 362 269 363 269 988 0 622-269 986-268 364-728 364zm0 487q750 0 1178-488 429-487 429-1349 0-859-429-1349Q2709-91 1959-91q-753 0-1180 489-426 490-426 1349 0 862 426 1349 427 488 1180 488z"
        transform="scale(.01563)"
      />
      <path
        id="m"
        d="M3328 2828q216 388 516 572t706 184q547 0 844-383 297-382 297-1088V0h-578v2094q0 503-179 746-178 244-543 244-447 0-707-297-259-296-259-809V0h-578v2094q0 506-178 748t-550 242q-441 0-701-298-259-298-259-808V0H581v3500h578v-544q197 322 472 475t653 153q382 0 649-194 267-193 395-562z"
        transform="scale(.01563)"
      />
      <path id="n" d="M603 4863h575V0H603v4863z" transform="scale(.01563)" />
      <path
        id="o"
        d="M2059-325q-243-625-475-815-231-191-618-191H506v481h338q237 0 368 113 132 112 291 531l103 262L191 3500h609L1894 763l1094 2737h609L2059-325z"
        transform="scale(.01563)"
      />
      <path
        id="p"
        d="M1984 4856q-418-718-622-1422-203-703-203-1425 0-721 205-1429t620-1424h-500Q1016-109 783 600T550 2009q0 697 231 1403 232 707 703 1444h500z"
        transform="scale(.01563)"
      />
      <path
        id="q"
        d="M513 4856h500q468-737 701-1444 233-706 233-1403 0-700-233-1409T1013-844H513q415 716 620 1424t205 1429q0 722-205 1425-205 704-620 1422z"
        transform="scale(.01563)"
      />
      <path
        id="r"
        d="M550 4863h1325v-447h-750V-397h750v-447H550v5707z"
        transform="scale(.01563)"
      />
      <path
        id="s"
        d="M2631 2963q-97 56-211 82-114 27-251 27-488 0-749-317t-261-911V0H581v3500h578v-544q182 319 472 473 291 155 707 155 59 0 131-8 72-7 159-23l3-590z"
        transform="scale(.01563)"
      />
      <path
        id="t"
        d="M2906 2969v1894h575V0h-575v525q-181-312-458-464-276-152-664-152-634 0-1033 506-398 507-398 1332t398 1331q399 506 1033 506 388 0 664-152 277-151 458-463zM947 1747q0-634 261-995t717-361q456 0 718 361 263 361 263 995t-263 995q-262 361-718 361t-717-361q-261-361-261-995z"
        transform="scale(.01563)"
      />
      <path
        id="u"
        d="M603 3500h575V0H603v3500zm0 1363h575v-729H603v729z"
        transform="scale(.01563)"
      />
      <path
        id="v"
        d="M2834 3397v-544q-243 125-506 187-262 63-544 63-428 0-642-131t-214-394q0-200 153-314t616-217l197-44q612-131 870-370t258-667q0-488-386-773Q2250-91 1575-91q-281 0-586 55T347 128v594q319-166 628-249 309-82 613-82 406 0 624 139 219 139 219 392 0 234-158 359-157 125-692 241l-200 47q-534 112-772 345-237 233-237 639 0 494 350 762 350 269 994 269 318 0 599-47 282-46 519-140z"
        transform="scale(.01563)"
      />
      <path
        id="w"
        d="M1947 4863V-844H622v447h747v4813H622v447h1325z"
        transform="scale(.01563)"
      />
    </defs>
    <use xlink:href="#g" />
    <use xlink:href="#h" x="86.279" />
    <use xlink:href="#i" x="147.803" />
    <use xlink:href="#j" x="209.082" />
    <use xlink:href="#DejaVuSans-20" x="272.461" />
    <use xlink:href="#k" x="304.248" />
    <use xlink:href="#j" x="372.656" />
    <use xlink:href="#l" x="436.035" />
    <use xlink:href="#m" x="497.217" />
    <use xlink:href="#i" x="594.629" />
    <use xlink:href="#n" x="655.908" />
    <use xlink:href="#o" x="683.691" />
    <use xlink:href="#DejaVuSans-20" x="742.871" />
    <use xlink:href="#p" x="774.658" />
    <use xlink:href="#g" x="813.672" />
    <use xlink:href="#q" x="899.951" />
    <use xlink:href="#DejaVuSans-20" x="938.965" />
    <use xlink:href="#r" x="970.752" />
    <use xlink:href="#s" x="1009.766" />
    <use xlink:href="#i" x="1050.879" />
    <use xlink:href="#t" x="1112.158" />
    <use xlink:href="#u" x="1175.635" />
    <use xlink:href="#i" x="1203.418" />
    <use xlink:href="#j" x="1264.697" />
    <use xlink:href="#v" x="1328.076" />
    <use xlink:href="#w" x="1380.176" />
  </g>
  <defs>
    <path
      id="x"
      d="M0 0h3.5"
      style="stroke: #fff; mix-blend-mode: difference; stroke-width: 0.8"
    />
  </defs>
  <use
    xlink:href="#x"
    x="72"
    y="356.182"
    style="
      fill: #fff;
      stroke: #fff;
      mix-blend-mode: difference;
      stroke-width: 0.8;
    "
  />
  <g
    style="fill: #fff; mix-blend-mode: difference"
    transform="matrix(.12 0 0 -.12 50.81 360.741)"
  >
    <use xlink:href="#b" />
    <use xlink:href="#c" x="83.789" />
  </g>
  <use
    xlink:href="#x"
    x="72"
    y="310.175"
    style="
      fill: #fff;
      stroke: #fff;
      mix-blend-mode: difference;
      stroke-width: 0.8;
    "
  />
  <g
    style="fill: #fff; mix-blend-mode: difference"
    transform="matrix(.12 0 0 -.12 50.81 314.734)"
  >
    <use xlink:href="#b" />
    <use xlink:href="#d" x="83.789" />
  </g>
  <use
    xlink:href="#x"
    x="72"
    y="264.167"
    style="
      fill: #fff;
      stroke: #fff;
      mix-blend-mode: difference;
      stroke-width: 0.8;
    "
  />
  <g
    style="fill: #fff; mix-blend-mode: difference"
    transform="matrix(.12 0 0 -.12 50.81 268.726)"
  >
    <use xlink:href="#b" />
    <use xlink:href="#e" x="83.789" />
  </g>
  <use
    xlink:href="#x"
    x="72"
    y="218.16"
    style="
      fill: #fff;
      stroke: #fff;
      mix-blend-mode: difference;
      stroke-width: 0.8;
    "
  />
  <use
    xlink:href="#f"
    style="fill: #fff; mix-blend-mode: difference"
    transform="matrix(.12 0 0 -.12 60.865 222.72)"
  />
  <use
    xlink:href="#x"
    x="72"
    y="172.153"
    style="
      fill: #fff;
      stroke: #fff;
      mix-blend-mode: difference;
      stroke-width: 0.8;
    "
  />
  <use
    xlink:href="#e"
    style="fill: #fff; mix-blend-mode: difference"
    transform="matrix(.12 0 0 -.12 60.865 176.712)"
  />
  <use
    xlink:href="#x"
    x="72"
    y="126.145"
    style="
      fill: #fff;
      stroke: #fff;
      mix-blend-mode: difference;
      stroke-width: 0.8;
    "
  />
  <use
    xlink:href="#d"
    style="fill: #fff; mix-blend-mode: difference"
    transform="matrix(.12 0 0 -.12 60.865 130.704)"
  />
  <use
    xlink:href="#x"
    x="72"
    y="80.138"
    style="
      fill: #fff;
      stroke: #fff;
      mix-blend-mode: difference;
      stroke-width: 0.8;
    "
  />
  <use
    xlink:href="#c"
    style="fill: #fff; mix-blend-mode: difference"
    transform="matrix(.12 0 0 -.12 60.865 84.697)"
  />
  <g
    style="fill: #fff; mix-blend-mode: difference"
    transform="matrix(0 -.12 -.12 0 44.314 313.246)"
  >
    <defs>
      <path
        id="y"
        d="M628 4666h2950v-532H1259V2753h2222v-531H1259V531h2375V0H628v4666z"
        transform="scale(.01563)"
      />
      <path
        id="z"
        d="M3122 3366v-538q-244 135-489 202t-495 67q-560 0-870-355-309-354-309-995t309-996q310-354 870-354 250 0 495 67t489 202V134Q2881 22 2623-34q-257-57-548-57-791 0-1257 497-465 497-465 1341 0 856 470 1346 471 491 1290 491 265 0 518-55 253-54 491-163z"
        transform="scale(.01563)"
      />
      <path
        id="A"
        d="M1172 4494v-994h1184v-447H1172V1153q0-428 117-550t477-122h590V0h-590q-666 0-919 248-253 249-253 905v1900H172v447h422v994h578z"
        transform="scale(.01563)"
      />
    </defs>
    <use xlink:href="#y" />
    <use xlink:href="#z" x="63.184" />
    <use xlink:href="#z" x="118.164" />
    <use xlink:href="#h" x="173.145" />
    <use xlink:href="#j" x="234.668" />
    <use xlink:href="#A" x="298.047" />
    <use xlink:href="#s" x="337.256" />
    <use xlink:href="#u" x="378.369" />
    <use xlink:href="#z" x="406.152" />
    <use xlink:href="#DejaVuSans-20" x="461.133" />
    <use xlink:href="#k" x="492.92" />
    <use xlink:href="#j" x="561.328" />
    <use xlink:href="#l" x="624.707" />
    <use xlink:href="#m" x="685.889" />
    <use xlink:href="#i" x="783.301" />
    <use xlink:href="#n" x="844.58" />
    <use xlink:href="#o" x="872.363" />
    <use xlink:href="#DejaVuSans-20" x="931.543" />
    <use xlink:href="#p" x="963.33" />
    <use xlink:href="#y" x="1002.344" />
    <use xlink:href="#q" x="1065.527" />
    <use xlink:href="#DejaVuSans-20" x="1104.541" />
    <use xlink:href="#r" x="1136.328" />
    <use xlink:href="#s" x="1175.342" />
    <use xlink:href="#i" x="1216.455" />
    <use xlink:href="#t" x="1277.734" />
    <use xlink:href="#u" x="1341.211" />
    <use xlink:href="#i" x="1368.994" />
    <use xlink:href="#j" x="1430.273" />
    <use xlink:href="#v" x="1493.652" />
    <use xlink:href="#w" x="1545.752" />
  </g>
  <path
    d="m92.29 369.36 21.36-12.873 25.427-15.05 40.683-24.047 14.24-8.697 11.188-7.08 9.153-6.027 8.137-5.595 8.137-5.881 7.12-5.437 6.102-4.922 6.103-5.207 6.102-5.535 5.086-4.897 5.085-5.18 5.085-5.48 5.086-5.786 6.102-7.323 7.12-8.963 19.325-24.65 6.102-7.257 5.086-5.725 5.085-5.42 5.086-5.121 5.085-4.843 6.103-5.477 6.102-5.157 6.103-4.878 7.12-5.395 7.119-5.128 8.137-5.595 9.153-6.028 11.188-7.079 13.222-8.084 18.308-10.902 60.008-35.52 10.171-6.161h0"
    clip-path="url(#B)"
    style="
      fill: none;
      stroke: #ffaf00;
      stroke-width: 1.5;
      stroke-linecap: square;
    "
  />
  <path
    d="m92.29 361.7 21.36-12.854 24.41-14.414 47.803-28.142 14.24-8.704 11.187-7.099 9.154-6.05 8.137-5.615 8.136-5.894 7.12-5.433 7.12-5.734 6.102-5.188 6.103-5.464 6.102-5.753 6.103-6.043 7.12-7.382 9.153-9.874 16.274-17.668 7.12-7.382 6.102-6.043 6.102-5.753 6.103-5.464 6.102-5.188 7.12-5.734 7.12-5.433 8.136-5.894 8.137-5.616 9.154-6.05 10.17-6.463 12.206-7.498 16.273-9.716 30.513-17.883 28.478-16.798 21.36-12.854h0"
    clip-path="url(#B)"
    style="
      fill: none;
      stroke: #f46920;
      stroke-width: 1.5;
      stroke-linecap: square;
    "
  />
  <path
    d="m92.29 355.146 20.343-12.227 23.393-13.786 58.99-34.583 13.223-8.112 11.188-7.13 9.154-6.082 8.136-5.64 8.137-5.902 7.12-5.413 7.12-5.668 7.119-5.936 7.12-6.204 8.136-7.383 11.188-10.506 17.29-16.271 8.137-7.348 7.12-6.166 7.12-5.898 7.12-5.63 8.136-6.127 8.137-5.833 9.154-6.263 10.17-6.652 11.188-7.031 13.223-8.03 17.29-10.22 70.18-41.175 11.187-6.756h0"
    clip-path="url(#B)"
    style="
      fill: none;
      stroke: #f53255;
      stroke-width: 1.5;
      stroke-linecap: square;
    "
  />
  <path
    d="M92.29 362.697 498.11 73.623"
    clip-path="url(#B)"
    style="
      fill: none;
      stroke-dasharray: 5.55, 2.4;
      stroke-dashoffset: 0;
      stroke: #fff;
      mix-blend-mode: difference;
      stroke-width: 1.5;
    "
  />
  <path
    d="M72 384.48V51.84M72 384.48h446.4"
    style="
      fill: none;
      stroke: #fff;
      mix-blend-mode: difference;
      stroke-linejoin: miter;
      stroke-linecap: square;
    "
  />
  <g
    style="fill: #fff; mix-blend-mode: difference"
    transform="matrix(.16 0 0 -.16 94.175 45.84)"
  >
    <defs>
      <path
        id="C"
        d="M628 4666h631V2694l2094 1972h813L1850 2491 4331 0h-831L1259 2247V0H628v4666z"
        transform="scale(.01563)"
      />
      <path
        id="D"
        d="M1159 525v-1856H581v4831h578v-531q182 312 458 463 277 152 661 152 638 0 1036-506 399-506 399-1331T3314 415Q2916-91 2278-91q-384 0-661 152-276 152-458 464zm1957 1222q0 634-261 995t-717 361q-457 0-718-361t-261-995q0-634 261-995t718-361q456 0 717 361t261 995z"
        transform="scale(.01563)"
      />
      <path
        id="E"
        d="M1147 4666V2931H616v1735h531z"
        transform="scale(.01563)"
      />
      <path
        id="F"
        d="M947 1747q0-634 261-995t717-361q456 0 718 361 263 361 263 995t-263 995q-262 361-718 361t-717-361q-261-361-261-995zM2906 525q-181-312-458-464-276-152-664-152-634 0-1033 506-398 507-398 1332t398 1331q399 506 1033 506 388 0 664-152 277-151 458-463v531h575v-4831h-575V525z"
        transform="scale(.01563)"
      />
      <path
        id="G"
        d="M544 1381v2119h575V1403q0-497 193-746 194-248 582-248 465 0 735 297 271 297 271 810v1984h575V0h-575v538q-209-319-486-474-276-155-642-155-603 0-916 375-312 375-312 1097zm1447 2203z"
        transform="scale(.01563)"
      />
      <path
        id="H"
        d="M750 794h659V0H750v794zm0 2515h659v-793H750v793z"
        transform="scale(.01563)"
      />
      <path
        id="I"
        d="M628 4666h631V2753h2294v1913h631V0h-631v2222H1259V0H628v4666z"
        transform="scale(.01563)"
      />
      <path
        id="J"
        d="M3116 1747q0 634-261 995t-717 361q-457 0-718-361t-261-995q0-634 261-995t718-361q456 0 717 361t261 995zM1159 2969q182 312 458 463 277 152 661 152 638 0 1036-506 399-506 399-1331T3314 415Q2916-91 2278-91q-384 0-661 152-276 152-458 464V0H581v4863h578V2969z"
        transform="scale(.01563)"
      />
    </defs>
    <use xlink:href="#C" />
    <use xlink:href="#h" x="60.576" />
    <use xlink:href="#D" x="122.1" />
    <use xlink:href="#n" x="185.576" />
    <use xlink:href="#h" x="213.359" />
    <use xlink:href="#s" x="274.883" />
    <use xlink:href="#E" x="315.996" />
    <use xlink:href="#v" x="343.486" />
    <use xlink:href="#DejaVuSans-20" x="395.586" />
    <use xlink:href="#y" x="427.373" />
    <use xlink:href="#F" x="490.557" />
    <use xlink:href="#G" x="554.033" />
    <use xlink:href="#i" x="617.412" />
    <use xlink:href="#A" x="678.691" />
    <use xlink:href="#u" x="717.9" />
    <use xlink:href="#l" x="745.684" />
    <use xlink:href="#j" x="806.865" />
    <use xlink:href="#H" x="870.244" />
    <use xlink:href="#DejaVuSans-20" x="903.936" />
    <use xlink:href="#y" x="935.723" />
    <use xlink:href="#z" x="998.906" />
    <use xlink:href="#z" x="1053.887" />
    <use xlink:href="#h" x="1108.867" />
    <use xlink:href="#j" x="1170.391" />
    <use xlink:href="#A" x="1233.77" />
    <use xlink:href="#s" x="1272.979" />
    <use xlink:href="#u" x="1314.092" />
    <use xlink:href="#z" x="1341.875" />
    <use xlink:href="#DejaVuSans-20" x="1396.855" />
    <use xlink:href="#k" x="1428.643" />
    <use xlink:href="#j" x="1497.051" />
    <use xlink:href="#l" x="1560.43" />
    <use xlink:href="#m" x="1621.611" />
    <use xlink:href="#i" x="1719.023" />
    <use xlink:href="#n" x="1780.303" />
    <use xlink:href="#o" x="1808.086" />
    <use xlink:href="#DejaVuSans-20" x="1867.266" />
    <use xlink:href="#p" x="1899.053" />
    <use xlink:href="#I" x="1938.066" />
    <use xlink:href="#o" x="2013.262" />
    <use xlink:href="#D" x="2072.441" />
    <use xlink:href="#h" x="2135.918" />
    <use xlink:href="#s" x="2197.441" />
    <use xlink:href="#J" x="2238.555" />
    <use xlink:href="#l" x="2302.031" />
    <use xlink:href="#n" x="2363.213" />
    <use xlink:href="#u" x="2390.996" />
    <use xlink:href="#z" x="2418.779" />
    <use xlink:href="#q" x="2473.76" />
  </g>
  <path
    d="M79 118.552h68.792q2 0 2-2V58.84q0-2-2-2H79q-2 0-2 2v57.712q0 2 2 2z"
    style="
      fill: transparent;
      opacity: 0.8;
      stroke: #fff;
      mix-blend-mode: difference;
      stroke-linejoin: miter;
    "
  />
  <path
    d="M81 64.938h20"
    style="
      fill: none;
      stroke: #ffaf00;
      stroke-width: 1.5;
      stroke-linecap: square;
    "
  />
  <g
    style="fill: #fff; mix-blend-mode: difference"
    transform="matrix(.1 0 0 -.1 109 68.438)"
  >
    <defs>
      <path
        id="K"
        d="M678 2906h4006v-525H678v525zm0-1275h4006v-531H678v531z"
        transform="scale(.01563)"
      />
      <path id="L" d="M684 794h660V0H684v794z" transform="scale(.01563)" />
    </defs>
    <use xlink:href="#h" />
    <use xlink:href="#DejaVuSans-20" x="61.523" />
    <use xlink:href="#K" x="93.311" />
    <use xlink:href="#DejaVuSans-20" x="177.1" />
    <use xlink:href="#e" x="208.887" />
    <use xlink:href="#L" x="272.51" />
    <use xlink:href="#e" x="304.297" />
  </g>
  <path
    d="M81 79.617h20"
    style="
      fill: none;
      stroke: #f46920;
      stroke-width: 1.5;
      stroke-linecap: square;
    "
  />
  <g
    style="fill: #fff; mix-blend-mode: difference"
    transform="matrix(.1 0 0 -.1 109 83.117)"
  >
    <use xlink:href="#h" />
    <use xlink:href="#DejaVuSans-20" x="61.523" />
    <use xlink:href="#K" x="93.311" />
    <use xlink:href="#DejaVuSans-20" x="177.1" />
    <use xlink:href="#e" x="208.887" />
    <use xlink:href="#L" x="272.51" />
    <use xlink:href="#c" x="304.297" />
  </g>
  <path
    d="M81 94.295h20"
    style="
      fill: none;
      stroke: #f53255;
      stroke-width: 1.5;
      stroke-linecap: square;
    "
  />
  <g
    style="fill: #fff; mix-blend-mode: difference"
    transform="matrix(.1 0 0 -.1 109 97.795)"
  >
    <defs>
      <path
        id="M"
        d="M691 4666h2478v-532H1269V2991q137 47 274 70 138 23 276 23 781 0 1237-428 457-428 457-1159 0-753-469-1171Q2575-91 1722-91q-294 0-599 50Q819 9 494 109v635q281-153 581-228t634-75q541 0 856 284 316 284 316 772 0 487-316 771-315 285-856 285-253 0-505-56-251-56-513-175v2344z"
        transform="scale(.01563)"
      />
    </defs>
    <use xlink:href="#h" />
    <use xlink:href="#DejaVuSans-20" x="61.523" />
    <use xlink:href="#K" x="93.311" />
    <use xlink:href="#DejaVuSans-20" x="177.1" />
    <use xlink:href="#e" x="208.887" />
    <use xlink:href="#L" x="272.51" />
    <use xlink:href="#M" x="304.297" />
  </g>
  <path
    d="M81 108.973h20"
    style="
      fill: none;
      stroke-dasharray: 5.55, 2.4;
      stroke-dashoffset: 0;
      stroke: #fff;
      mix-blend-mode: difference;
      stroke-width: 1.5;
    "
  />
  <g
    style="fill: #fff; mix-blend-mode: difference"
    transform="matrix(.1 0 0 -.1 109 112.473)"
  >
    <use xlink:href="#g" />
    <use xlink:href="#DejaVuSans-20" x="86.279" />
    <use xlink:href="#K" x="118.066" />
    <use xlink:href="#DejaVuSans-20" x="201.855" />
    <use xlink:href="#y" x="233.643" />
  </g>
  <defs>
    <clipPath id="B"><path d="M72 51.84h446.4v332.64H72z" /></clipPath>
  </defs>
</svg>
